<?xml version="1.0" standalone="no"?>
<!DOCTYPE svg PUBLIC "-//W3C//DTD SVG 20010904//EN"
 "http://www.w3.org/TR/2001/REC-SVG-20010904/DTD/svg10.dtd">
<svg version="1.0" xmlns="http://www.w3.org/2000/svg"
 width="1254.000000pt" height="1254.000000pt" viewBox="0 0 1254.000000 1254.000000"
 preserveAspectRatio="xMidYMid meet">
<metadata>
Created by potrace 1.12, written by Peter Selinger 2001-2015
</metadata>
<g transform="translate(0.000000,1254.000000) scale(0.100000,-0.100000)"
fill="#000000" stroke="none">
<path d="M0 6270 l0 -6270 6270 0 6270 0 0 6270 0 6270 -6270 0 -6270 0 0
-6270z m5735 2721 c136 -28 298 -82 430 -145 l110 -52 120 57 c467 223 1005
224 1484 3 368 -171 657 -457 837 -829 72 -149 116 -272 151 -430 34 -150 43
-475 19 -639 -93 -624 -471 -1143 -1030 -1415 -286 -139 -522 -189 -840 -178
-246 9 -457 58 -661 155 l-80 38 -99 -44 c-232 -102 -396 -140 -637 -149 -243
-9 -423 18 -642 94 -629 218 -1086 739 -1227 1398 -28 128 -39 460 -20 599
112 831 739 1452 1570 1555 119 15 399 5 515 -18z m-3931 -4066 c96 -25 167
-66 237 -135 60 -60 129 -170 129 -207 0 -10 -23 -13 -100 -13 -98 0 -100 0
-114 28 -46 88 -158 153 -276 160 -236 14 -399 -155 -388 -402 6 -144 79 -255
207 -315 49 -23 69 -26 156 -26 117 0 165 17 240 86 42 39 95 122 95 149 0 6
-64 10 -185 10 l-185 0 0 85 0 85 289 0 289 0 5 -29 c7 -35 -8 -151 -29 -212
-20 -61 -76 -154 -122 -203 -162 -170 -434 -212 -658 -101 -91 44 -198 154
-242 246 -152 324 19 704 358 793 73 19 221 20 294 1z m7922 -49 c48 -48 47
-95 -1 -143 -32 -32 -40 -35 -77 -30 -60 8 -93 45 -93 103 0 39 5 50 33 75 46
42 93 40 138 -5z m-5684 -226 c78 -137 145 -250 148 -250 3 0 66 112 141 248
l135 247 92 3 c51 1 92 1 92 -2 0 -4 -183 -326 -328 -576 l-55 -95 -5 -187 -4
-188 -79 0 -79 0 0 187 0 186 -37 66 c-39 70 -177 311 -273 476 -86 147 -88
135 18 135 l90 0 144 -250z m3388 226 c153 -49 273 -155 331 -294 28 -67 33
-91 37 -189 4 -93 1 -123 -16 -180 -41 -132 -134 -243 -256 -303 -100 -49
-174 -60 -423 -60 l-223 0 0 518 c0 285 3 522 8 526 4 4 115 6 247 3 191 -3
251 -8 295 -21z m-3970 -151 l0 -105 95 0 95 0 0 -70 0 -70 -95 0 -95 0 0
-190 c0 -142 4 -199 14 -225 15 -36 59 -65 99 -65 14 0 39 -3 56 -6 l31 -6 0
-71 0 -70 -89 5 c-141 8 -206 50 -247 159 -14 35 -18 89 -22 257 l-4 212 -69
0 -69 0 0 59 c0 59 0 59 33 66 77 17 138 90 153 183 l7 42 53 0 54 0 0 -105z
m-578 -127 c141 -65 228 -210 228 -380 l0 -38 -315 0 c-350 0 -333 4 -296 -68
45 -87 119 -132 221 -132 82 0 136 24 179 79 l34 42 71 -2 c39 -1 74 -4 79 -6
14 -8 -57 -125 -100 -163 -146 -128 -381 -130 -521 -4 -119 106 -168 261 -128
409 36 138 120 227 261 278 75 27 211 20 287 -15z m2205 -2 c195 -89 285 -340
192 -535 -90 -191 -316 -278 -522 -201 -80 30 -167 112 -209 198 -31 63 -33
73 -33 172 0 103 1 109 38 183 73 149 198 219 377 214 79 -3 105 -8 157 -31z
m1651 28 c21 -6 23 -11 20 -73 l-3 -66 -65 -6 c-99 -9 -169 -57 -190 -130 -6
-18 -10 -139 -10 -266 l0 -233 -81 0 -80 0 3 383 3 382 30 3 c52 6 101 -15
115 -48 13 -31 13 -31 34 -12 54 50 163 82 224 66z m1683 -14 c154 -48 251
-178 266 -356 l6 -74 -318 0 -317 0 6 -32 c18 -93 121 -168 230 -168 79 0 159
37 188 87 l20 33 79 0 c57 0 79 -4 79 -12 0 -28 -62 -118 -110 -161 -74 -67
-143 -91 -260 -91 -127 0 -193 25 -271 103 -96 97 -135 215 -117 355 20 149
128 277 271 321 64 21 175 18 248 -5z m1977 -18 c76 -39 133 -96 166 -165 43
-90 42 -92 -41 -95 -70 -3 -72 -2 -87 25 -19 36 -72 86 -116 109 -48 25 -153
25 -200 0 -94 -49 -134 -117 -134 -231 -1 -72 2 -86 30 -135 22 -38 46 -64 79
-85 44 -27 57 -30 131 -30 76 0 86 2 125 30 39 27 55 47 94 109 8 13 22 15 82
10 l71 -7 -13 -42 c-28 -96 -128 -197 -227 -232 -77 -26 -214 -24 -289 6 -259
101 -323 477 -115 669 85 78 156 103 286 99 84 -3 102 -7 158 -35z m795 19
c106 -37 180 -102 224 -198 28 -60 47 -163 38 -205 l-7 -28 -309 0 c-304 0
-309 0 -309 -20 0 -28 33 -90 62 -117 97 -91 284 -80 361 20 28 37 29 37 101
37 40 0 76 -3 79 -6 4 -4 -8 -34 -25 -66 -117 -220 -443 -263 -625 -82 -127
127 -150 352 -51 506 51 80 122 135 213 164 62 20 183 17 248 -5z m-5601 -239
c3 -243 4 -249 28 -297 60 -115 234 -133 327 -33 52 55 57 86 61 341 l4 237
74 0 74 0 0 -385 0 -386 -67 3 -67 3 -11 43 c-10 43 -11 44 -28 24 -10 -11
-46 -35 -80 -53 -56 -30 -70 -34 -147 -34 -142 0 -226 48 -282 163 l-33 66 -3
278 -3 278 75 0 75 0 3 -248z m3316 121 c27 -71 78 -203 112 -295 35 -93 66
-165 69 -162 3 3 56 135 118 292 l111 287 82 3 c81 3 82 3 77 -20 -4 -12 -73
-186 -154 -385 l-148 -363 -91 0 -91 0 -71 178 c-39 97 -105 265 -148 372 -42
107 -78 201 -81 208 -4 9 16 12 80 12 l86 0 49 -127z m820 -260 l2 -383 -80 0
-80 0 0 378 c0 208 3 382 7 386 4 4 39 5 78 4 l70 -3 3 -382z"/>
<path d="M5283 8799 c-114 -10 -302 -52 -404 -89 -98 -37 -267 -121 -344 -173
-345 -232 -588 -614 -666 -1045 -18 -102 -21 -142 -16 -317 6 -218 20 -306 75
-472 106 -314 315 -603 581 -804 140 -106 362 -216 526 -263 282 -80 520 -86
792 -21 101 24 243 74 243 85 0 3 -39 38 -87 77 -166 134 -324 314 -412 467
-60 106 -62 98 30 123 224 63 402 166 580 338 40 39 170 176 290 305 120 129
313 330 429 445 l211 210 479 -485 479 -485 -467 -5 -466 -5 -41 -110 c-121
-318 -327 -620 -554 -811 -38 -32 -66 -63 -62 -67 15 -15 209 -76 312 -98 139
-30 416 -33 559 -6 428 80 820 341 1067 710 331 497 368 1128 96 1659 -317
622 -1025 957 -1703 808 -92 -21 -217 -60 -294 -94 l-48 -21 63 -50 c144 -113
287 -267 386 -415 48 -71 108 -180 99 -180 -2 0 -48 -13 -102 -29 -290 -87
-477 -208 -734 -474 -85 -89 -284 -292 -441 -451 -264 -266 -288 -288 -305
-275 -11 8 -226 222 -478 476 l-459 463 458 2 459 3 31 80 c126 318 325 597
579 812 l49 41 -49 22 c-135 60 -317 105 -489 120 -113 10 -124 10 -252 -1z"/>
<path d="M7047 4743 c-4 -3 -7 -173 -7 -376 l0 -370 158 5 c185 6 242 23 319
93 145 129 156 387 25 536 -43 49 -135 96 -212 108 -72 12 -273 15 -283 4z"/>
<path d="M2650 4481 c-43 -13 -84 -38 -111 -68 -28 -29 -59 -84 -59 -103 0
-12 456 -14 464 -2 10 16 -42 109 -74 132 -59 42 -156 60 -220 41z"/>
<path d="M4855 4481 c-146 -36 -223 -172 -184 -326 24 -94 132 -175 235 -175
149 0 259 108 257 254 -1 81 -25 138 -81 186 -65 58 -148 80 -227 61z"/>
<path d="M8206 4475 c-57 -22 -103 -61 -126 -105 -37 -73 -47 -70 208 -70 126
0 231 3 234 6 10 9 -22 77 -50 107 -61 65 -183 94 -266 62z"/>
<path d="M10991 4479 c-58 -18 -117 -65 -140 -112 -12 -24 -21 -49 -21 -55 0
-9 59 -12 230 -12 250 0 242 -2 219 57 -14 38 -56 81 -103 105 -46 24 -136 32
-185 17z"/>
</g>
</svg>
